<svg xmlns="http://www.w3.org/2000/svg" width="48" height="48" viewBox="0 0 48 48">
  <defs>
    <linearGradient id="ipp" x1="0" y1="0" x2="1" y2="1">
      <stop offset="0" stop-color="#13837E"/>
      <stop offset="1" stop-color="#0A5450"/>
    </linearGradient>
  </defs>
  <rect width="48" height="48" rx="12" fill="url(#ipp)"/>
  <g transform="translate(9.6 9.6) scale(0.6)">
    <path d="M24 31 C24 23 18 21 12.5 17" stroke="#fff" stroke-width="2.7" stroke-linecap="round" fill="none"/>
    <path d="M24 31 C24 23 30 21 35.5 17" stroke="#fff" stroke-width="2.7" stroke-linecap="round" fill="none"/>
    <ellipse cx="10.6" cy="15.4" rx="3.2" ry="2.4" fill="#fff" transform="rotate(-32 10.6 15.4)"/>
    <ellipse cx="37.4" cy="15.4" rx="3.2" ry="2.4" fill="#fff" transform="rotate(32 37.4 15.4)"/>
    <path d="M24 30.5 C19.6 30.5 18.6 35 20.8 38 C22.4 40.2 25.6 40.2 27.2 38 C29.4 35 28.4 30.5 24 30.5 Z" fill="#fff"/>
  </g>
</svg>
